<svg width="400" height="300" viewBox="0 0 400 300" fill="none" xmlns="http://www.w3.org/2000/svg">
  <!-- Background -->
  <rect width="400" height="300" fill="#F5F1EC"/>
  
  <!-- Microphone and audio waves -->
  <g transform="translate(150, 100)">
    <!-- Microphone base -->
    <rect x="45" y="60" width="10" height="20" rx="5" fill="#7E0F14"/>
    <rect x="47" y="80" width="6" height="15" rx="3" fill="#5D0B0E"/>
    
    <!-- Microphone head -->
    <circle cx="50" cy="50" r="12" fill="#7E0F14"/>
    <circle cx="50" cy="50" r="8" fill="white"/>
    <circle cx="50" cy="50" r="4" fill="#7E0F14"/>
    
    <!-- Audio waves -->
    <path d="M 70 40 Q 75 30 80 40 Q 85 50 90 40 Q 95 30 100 40 Q 105 50 110 40 Q 115 30 120 40" 
          stroke="#7E0F14" stroke-width="3" fill="none" opacity="0.8"/>
    <path d="M 70 50 Q 75 40 80 50 Q 85 60 90 50 Q 95 40 100 50 Q 105 60 110 50 Q 115 40 120 50" 
          stroke="#7E0F14" stroke-width="3" fill="none" opacity="0.6"/>
    <path d="M 70 60 Q 75 50 80 60 Q 85 70 90 60 Q 95 50 100 60 Q 105 70 110 60 Q 115 50 120 60" 
          stroke="#7E0F14" stroke-width="3" fill="none" opacity="0.4"/>
    
    <!-- Play button -->
    <circle cx="50" cy="50" r="25" fill="#7E0F14" opacity="0.1"/>
    <polygon points="45,40 45,60 65,50" fill="#7E0F14" opacity="0.3"/>
  </g>
  
  <!-- Text -->
  <text x="200" y="220" text-anchor="middle" font-family="Inter, sans-serif" font-size="14" fill="#374151" font-weight="500">
    Sermon Image
  </text>
  <text x="200" y="240" text-anchor="middle" font-family="Inter, sans-serif" font-size="12" fill="#6B7280">
    Placeholder for sermon photos
  </text>
</svg>
